PathFileType	4	(X/Y/Z)	Patient4_TMGait_0pt6_02_right_17.trc.trc
DataRate	CameraRate	NumFrames	NumMarkers	Units	OrigDataRate	OrigDataStartFrame	OrigNumFrames
80.924855491329	80.924855491329	5	33	mm	80.924855491329	18	       141
Frame#	Time	Sacral			L.Shoulder			Chest			R.Shoulder			Neck			R.ASIS			L.ASIS			R.Thigh.Superior			R.Thigh.Lateral			R.Thigh.Inferior			R.Patella			L.Thigh.Superior			L.Thigh.Lateral			L.Thigh.Inferior			L.Patella			L.Shank.Superior			L.Shank.Lateral			L.Shank.Inferior			R.Shank.Superior			R.Shank.Lateral			R.Shank.Inferior			R.Heel			R.Midfoot.Superior			R.Midfoot.Lateral			R.Toe			L.Heel			L.Midfoot.Lateral			L.Midfoot.Superior			L.Toe			L.Elbow			L.Wrist			R.Elbow			R.Wrist			
		X1	Y1	Z1	X2	Y2	Z2	X3	Y3	Z3	X4	Y4	Z4	X5	Y5	Z5	X6	Y6	Z6	X7	Y7	Z7	X8	Y8	Z8	X9	Y9	Z9	X10	Y10	Z10	X11	Y11	Z11	X12	Y12	Z12	X13	Y13	Z13	X14	Y14	Z14	X15	Y15	Z15	X16	Y16	Z16	X17	Y17	Z17	X18	Y18	Z18	X19	Y19	Z19	X20	Y20	Z20	X21	Y21	Z21	X22	Y22	Z22	X23	Y23	Z23	X24	Y24	Z24	X25	Y25	Z25	X26	Y26	Z26	X27	Y27	Z27	X28	Y28	Z28	X29	Y29	Z29	X30	Y30	Z30	X31	Y31	Z31	X32	Y32	Z32	X33	Y33	Z33	

18	20.490071428571	827.743294806168	1007.630167404485	428.285919774353	1038.897727506802	1428.999171953529	255.882059699488	1120.787086362178	1357.628982715772	426.803826611582	1022.796063920470	1439.752865121738	587.969824694908	1022.512974357918	1492.255659632562	404.930298109700	1042.244826493438	945.892094988875	567.733985102121	1050.899823594423	953.781856477728	293.199713044081	1123.074568292923	774.346928222741	541.310856234047	1076.814945168975	651.045596905145	610.086441551033	1166.564288184825	617.169329665621	530.721463046394	1200.362795001797	537.733926016549	544.152919491070	1061.543706114084	731.593758485087	328.183356393907	955.272136361823	633.075664107945	257.203578036274	1011.951853338206	542.221146478860	328.567792776956	997.004448311765	475.130509578967	337.976881215392	965.426798410209	407.554896559810	327.268057181083	866.796880789227	303.378778724515	272.274998416301	899.057940869901	188.263283579015	346.500575384452	1191.646649808695	447.798034249157	554.564975944997	1148.911654849125	330.836647161614	619.609768776979	1221.613976509560	249.566885726528	564.692319386218	1138.534381280105	60.592171148257	537.128053363693	1302.252501919382	136.194659372204	574.230738398934	1225.774513523428	57.255249271456	606.915139773011	1427.514503013035	99.182560113765	592.013544633922	757.635378543072	39.519970068741	386.342619564551	830.548884380539	35.613155463221	305.242868595842	914.826336479700	95.657224254222	332.353849105215	1042.481655363731	41.664992393846	301.072783773852	1059.002983249893	1082.233287473998	125.828884585694	1299.727137787163	993.873434403941	152.722817073649	867.712468120927	1140.917798943011	716.483085434507	825.128798646357	885.641002962351	747.253775146862	
19	20.502428571429	829.563052326414	1006.041364432897	430.825295193991	1039.319492787455	1427.664288945851	257.892393790547	1121.524450245009	1356.580989530850	428.737592490061	1023.592600448652	1438.689995561811	589.961743328993	1022.988842473221	1490.982083736542	406.831150129025	1044.101081805100	944.117846576928	569.803267826864	1051.897862490523	952.072573135173	295.321982056631	1123.200156634570	770.548614003276	543.927515111155	1074.239103067445	647.284692785822	611.265982999162	1164.130082637149	612.947512342787	532.519933213407	1195.696775266349	533.543656935165	545.066704174465	1060.850305386868	729.847838543895	329.148238951305	952.926544408645	632.505585926486	258.469878054761	1009.003696434848	540.870547367170	329.060612209755	993.459659012755	473.790528593282	338.436055870843	961.192630206534	406.642023840835	327.731969490413	861.340765111080	303.577902706318	272.687862334308	892.575798826714	187.930998514542	346.506261756215	1187.539419428435	443.508208244564	555.241263234040	1144.274862338345	326.209338571932	619.030416889653	1217.478030403479	245.392748531774	564.233103209250	1134.540579377873	57.161118028326	534.745431563813	1298.083633619194	131.956690874513	573.423159933840	1221.036511653119	53.590187322504	605.451638059543	1423.025883864164	94.448310194474	592.357255458857	750.156398548377	39.638593194682	386.249139123006	823.117910200935	35.609336759534	305.242700966721	907.469899873459	95.620906164036	332.259127669364	1035.083204238020	41.366309348402	301.005713869470	1060.356446425435	1080.840948393859	128.608257594036	1302.539367983133	997.778411870461	156.819983003731	865.314802544323	1141.611444038094	717.189901199033	821.782431147035	886.223790909203	746.934686539109	
20	20.514785714286	831.508709569611	1004.318424214275	433.638312281821	1039.570563050720	1426.201062602854	260.048956726499	1122.261285330007	1355.489041293928	430.778825182626	1024.416584723317	1437.495125054460	592.138796750971	1023.391508047611	1489.614792526471	408.891552031008	1046.219704856845	942.195219048535	571.945313729754	1052.875712633634	950.239760933367	297.607530177570	1123.709920717380	766.660932317065	546.408712338061	1072.016951151566	643.495572955463	612.177845975637	1162.034602415485	608.703215471392	534.017785854059	1191.256128242342	529.015600570241	545.586231037402	1060.450452271989	728.098860576408	330.071569804330	950.867933496004	631.899592263252	259.850649985774	1006.523897010626	539.473827026250	329.543964374222	990.457753842238	472.289042392292	338.879970300443	957.341366003749	405.611696156171	328.218632121449	856.097067881190	303.819395756069	273.152338509872	886.207595995946	187.575151693888	346.490019063195	1183.225213068557	438.845307229504	555.503461709054	1138.872678028821	321.505362384405	618.179587483283	1211.928830385062	240.705435928143	563.407285837971	1127.885511292208	53.875713350397	532.460556206158	1291.699780055017	126.972240673177	572.099155984096	1213.730112331668	49.874834912698	603.969531613767	1416.193801775987	88.346223665930	592.151872579650	742.666008428462	39.817682651806	386.115941987383	815.695661904189	35.604252181454	305.215412151046	900.144430812896	95.593285421476	332.116576872515	1027.710973045347	41.061950553043	300.920576269875	1061.567798229602	1079.237791044508	131.591457425362	1304.916719985582	1000.747617857264	160.969563409157	863.712570662620	1141.611573246926	717.903218386621	819.803902233624	885.972785430059	746.588835333711	
21	20.527142857143	833.532507680847	1002.542962619163	436.681516104454	1039.686943574205	1424.662200978515	262.355791162818	1123.021684212795	1354.387991323463	432.933268994432	1025.292743718666	1436.208800429736	594.505130240314	1023.767738474705	1488.209972076170	411.121659311438	1048.552279688655	940.199762599188	574.156051204854	1053.955226487114	948.497505020431	300.043574519971	1124.530253462035	762.748416586384	548.731577445653	1070.135379088189	639.805719775395	612.889567139574	1160.198483496292	604.534605372012	535.205248385994	1187.058557261995	524.331334716490	545.731403956664	1060.369340333744	726.399944838423	330.982860290776	949.165363457850	631.270982351278	261.357904385327	1004.593657297512	538.056410192066	330.050437714001	988.098323974747	470.632497764065	339.316810539159	953.941553920851	404.476890781543	328.743239463489	851.129388645877	304.139550188768	273.681096894688	879.995498934671	187.225287030182	346.452868837193	1178.819444918334	434.018809833445	555.396077514876	1133.033652210464	316.869203686930	617.166725556006	1205.391524989837	235.736286216929	562.269981368126	1119.246074457263	50.809383996419	530.414661492413	1283.703905829493	121.557788915602	570.288289023106	1204.586699566014	46.307064687922	602.549774141637	1407.697704471837	81.370908321089	591.346601329331	735.175294556330	40.137554595842	385.933609301746	808.289923166443	35.630163833033	305.154592816086	892.880302067728	95.578717515849	331.915437634762	1020.371995487201	40.753360399715	300.814832968960	1062.595292077172	1077.455994523332	134.776971585079	1306.855736116301	1002.755516869335	165.149099910796	862.981814990082	1140.913175996897	718.688186995725	819.230916186715	884.898548260758	746.251070682098	
22	20.539500000000	835.575218979795	1000.818078369979	439.903902200110	1039.715695949508	1423.126021923735	264.813148619575	1123.829899429118	1353.328883552989	435.203491724286	1026.249718912595	1434.894727061271	597.058165145325	1024.172647716833	1486.844608282866	413.528886652359	1051.029594127207	938.234691476096	576.433506408177	1055.328107973131	947.146566330255	302.593080925649	1125.569412833988	758.920510405297	550.879980521579	1068.595279117704	636.376247703529	613.491780399570	1158.543960508455	600.582528473408	536.088026447858	1183.132696086589	519.718790909713	545.566234212479	1060.629172924732	724.819503415284	331.921897839055	947.895901590829	630.638924529257	263.006712661929	1003.307244316014	536.657331746100	330.621694932123	986.494039465622	468.843522170695	339.758626023178	951.076506172154	403.266773908088	329.321766546796	846.518562777393	304.594025362982	274.287485005761	873.998979558140	186.930463382567	346.395522498791	1174.452773598763	429.278612968724	555.006074296052	1127.092276803134	312.483640603083	616.117157684477	1198.314027068363	230.769073666165	560.911788154337	1109.357170071023	48.064073675345	528.703020664979	1274.723493863953	116.095080112259	568.093720849092	1194.363663933056	43.095751366657	601.264281297931	1398.228775924823	74.095694954286	590.003548122318	727.707190639230	40.714830600984	385.694609232535	800.913455511939	35.742625216540	305.055384499816	885.721839361622	95.587177554072	331.643356642446	1013.070583187870	40.440878246417	300.686991559330	1063.391788235047	1075.553235474537	138.167767163339	1308.334814739290	1003.786768405446	169.337589536119	863.201512029298	1139.545875801626	719.606174800712	820.105776914571	883.048470472890	745.946136258171	
